<?xml version="1.0" encoding="UTF-8"?>
<svg id="SVGDoc" width="200" height="38" xmlns="http://www.w3.org/2000/svg" version="1.1" xmlns:xlink="http://www.w3.org/1999/xlink" xmlns:avocode="https://avocode.com/" viewBox="0 0 200 38"><defs></defs><desc>Generated with Avocode.</desc><g><g><title>Logo</title><g><title>Fill 13</title><path d="M200,3.93927c0,2.18848 -1.77301,3.93926 -4,3.93926c-2.19946,0 -4,-1.75078 -4,-3.93926c0,-2.18848 1.80054,-3.93927 4,-3.93927c2.18677,0 4,1.75079 4,3.93927" fill="#ff4614" fill-opacity="1"></path></g><g><title>Fill 7</title><path d="M181.93073,20.05225c0,-1.75079 -0.60358,-3.93927 -1.73035,-5.4911c-0.84503,-1.19372 -3.13873,-3.56115 -7.88702,-3.56115c-4.46667,0 -6.84082,1.92974 -7.56519,2.5266c-0.04022,0.03979 -0.16095,0.07958 -0.20117,0c-0.04028,-0.07958 -0.92554,-1.90995 -0.92554,-1.90995v0l-5.27145,0.31832v0v10.18639v0v15.39896v0h7.20297v0v-18.70158v0v0c0.36218,-0.31832 0.88531,-0.81874 1.44702,-1.11413c0.92712,-0.55708 1.85266,-0.75602 3.14038,-0.75602c1.28766,0 2.73633,0.19894 3.46063,0.95496c0.7243,0.75602 1.04626,1.35288 1.04626,2.22827v17.38849v0h7.20294v0v-16.67226v0z" fill="#002d6e" fill-opacity="1"></path></g><g><title>Fill 9</title><path d="M147.44855,26c0,3.32262 -1.00601,6.46607 -4.74835,6.46607h-1.32791c-3.74234,0 -4.74835,-3.10366 -4.74835,-6.46607v-3.24283c0,-3.34241 1.00601,-6.44608 4.74835,-6.44608h1.32791c3.74234,0 4.74835,3.10366 4.74835,6.44608zM141.05035,10.82c-9.33572,0 -11.79034,6.36649 -11.79034,12.81257v1.43246c0,6.44607 2.45462,12.81255 11.79034,12.81255h2.0925c9.33569,0 11.79034,-6.36649 11.79034,-12.81255v-1.43246c0,-6.44608 -2.45465,-12.81257 -11.79034,-12.81257z" fill="#002d6e" fill-opacity="1"></path></g><g><title>Fill 5</title><path d="M126,11c-1.8165,0 -3.10419,0.37811 -5,1.57183c-1,0.67644 -2,2.1089 -2.61108,3.10367c-0.04025,0.07958 -0.2012,0.07958 -0.24146,-0.07958c0,-0.11938 -0.56335,-4.09843 -0.56335,-4.09843v0l-5.71411,0.43769v0c0,0 0.04025,-1.43246 0.04025,10.18639c0,11.65865 -0.04025,15.35916 -0.04025,15.35916v0h7.20297v0v-13.9267v0c0,0 0,-2.06911 1.40842,-3.74031c1.36816,-1.67121 3.46066,-2.26807 5.07025,-2.26807c1.08652,0 1.77057,0.11938 1.77057,0.11938v0l1.44867,-6.32671c-0.04025,0 -0.84506,-0.33832 -2.77087,-0.33832" fill="#002d6e" fill-opacity="1"></path></g><g><title>Fill 11</title><path d="M107.3703,32.67199c-0.48288,0.03979 -1.12674,0.11937 -2.2937,0.11937c-0.96576,0 -2.53513,-0.95497 -2.53513,-2.42722v-13.72775v0h5.45853v0v-4.93403v0h-5.45853v0v-5.25236v0l-5.47266,0.35811v0l-1.16696,4.89425v0h-3.66187v0v4.93403v0h3.21921v0v14.48377c0,1.59161 0.68408,3.74031 2.17297,5.09319c1.48889,1.35288 3.36783,1.78665 6.15674,1.78665c2.81683,0 4.26547,-0.55314 4.26547,-0.55314v0v-4.85445v0c0,0 -0.24146,0.03979 -0.68408,0.07958" fill="#002d6e" fill-opacity="1"></path></g><g><title>Fill 3</title><path d="M82.14038,37.44366v0h7.96756v0l-7.92731,-14.12565v0l7.64563,-11.85759v0h-7.96756v0l-5.79459,9.39058v0h-3.58136v0v-16.911v0l-7.16275,0.4377v0c0,0 0.04022,6.24712 0.04022,17.78638c0,11.53927 -0.04022,15.35917 -0.04022,15.35917v0h7.20297v0v-11.22095v0h3.54114v0z" fill="#002d6e" fill-opacity="1"></path></g><g><title>Fill 15</title><path d="M55.41245,21.76105h-10.06006c0.16095,-2.58639 1.20721,-4.89423 3.98376,-5.21255c3.94354,-0.39791 6.19699,1.55183 6.07629,5.21255zM57.94757,31.54954c-3.54114,0.79581 -8.24924,1.07434 -10.58316,-0.83561c-1.24747,-1.07434 -1.60962,-2.46701 -1.8913,-4.45654h16.21677c1.20721,-9.311 -2.4144,-15.91623 -12.75613,-15.25739c-3.01801,0.21655 -5.71408,1.33069 -7.40417,2.92231c-4.52957,4.2178 -4.7081,14.84189 -0.88528,19.69633c3.58139,4.61572 11.42819,5.0932 18.06784,3.38136z" fill="#002d6e" fill-opacity="1"></path></g><g><title>Fill 17</title><path d="M34.61298,21.3289c0,11.6711 0.04025,16.19476 0.04025,16.19476v0h-7.24323v0c0,0 0.04022,-4.61571 0.04022,-16.19476c0,-11.57906 -0.04022,-16.8712 -0.04022,-16.8712v0l7.20297,-0.4577c0.04025,0 0,5.63047 0,17.3289" fill="#002d6e" fill-opacity="1"></path></g><g><title>Fill 19</title><path d="M17.39023,21.76105h-10.06006c0.16098,-2.58639 1.20721,-4.89423 3.9838,-5.21255c3.94351,-0.39791 6.19696,1.55183 6.07626,5.21255zM19.92535,31.54954c-3.54114,0.79581 -8.24924,1.07434 -10.58316,-0.83561c-1.24744,-1.07434 -1.60959,-2.46701 -1.8913,-4.45654h16.2168c1.20718,-9.311 -2.41443,-15.91623 -12.75613,-15.25739c-3.01801,0.21655 -5.67386,1.33069 -7.40417,2.92231c-4.42642,4.2178 -4.62762,14.80209 -0.80481,19.69633c3.58136,4.61572 11.42819,5.0932 18.06781,3.38136z" fill="#002d6e" fill-opacity="1"></path></g></g></g></svg>