<svg width="100%" height="100%" viewBox="0 0 151 48" fill="none" xmlns="http://www.w3.org/2000/svg">
<g clip-path="url(#clip0_727_1389)">
<path d="M150.467 0V48" stroke="#B2A97E" stroke-width="2"/>
<path d="M10.2327 11.0649C9.88941 11.0649 9.60073 10.9592 9.35105 10.9592C8.66445 10.9592 8.36796 11.3505 8.36796 12.2973C8.38147 12.677 8.41402 13.0557 8.46549 13.432H10.3302C11.1729 13.432 11.4694 13.925 11.4694 14.9971V18.5967C11.4694 19.9309 11.0207 20.2791 9.49929 20.2791H8.81269V38.1284C8.81269 39.7561 8.66445 40.2999 6.88553 40.2999C6.15601 40.2999 5.55914 40.1982 5.21584 40.1982C4.57605 40.1982 3.98308 40.3508 3.34329 40.3508C1.86866 40.3508 1.82185 39.6544 1.82185 37.882V20.3926C1.61105 20.4327 1.39653 20.4497 1.18206 20.4434C0.0429279 20.4434 0.0117188 19.8996 0.0117188 18.4167V15.0127C0.0117188 13.8389 0.300403 13.3811 1.29129 13.3811C1.43954 13.3811 1.63069 13.432 1.83355 13.432V8.94032C1.83355 5.77892 3.50714 4.15128 6.7997 4.15128H8.81269C10.9271 4.15128 11.4694 4.15128 11.4694 6.02933V9.56634C11.4694 10.5562 11.0793 11.0492 10.2327 11.0492" fill="#002D62"/>
<path d="M22.5921 32.9795C23.9692 32.9795 24.4608 32.24 24.4608 30.4597V22.2667C24.4608 20.0483 24.2657 19.0584 22.5453 19.0584C21.4608 19.0584 20.9849 19.8018 20.9849 21.4294V30.6945C20.9849 32.1735 21.5271 32.9638 22.6116 32.9638L22.5921 32.9795ZM15.5272 14.8953C17.2944 12.2817 19.5102 11.3936 22.8535 11.3936C29.5518 11.3936 31.5219 15.5409 31.5219 24.5243C31.5219 30.1506 31.475 33.9146 30.4412 36.0274C28.8808 39.2357 26.3567 40.6169 22.5102 40.6169C15.6247 40.6169 13.9004 35.8787 13.9004 25.8585C13.9004 20.5765 14.0447 17.016 15.5272 14.9032" fill="#002D62"/>
<path d="M34.5995 37.5729V17.6185C34.5995 17.0238 34.5059 16.0535 34.5059 14.7584C34.5059 12.2895 34.8492 11.7926 37.5565 11.7926H39.9675C41.5279 11.7926 41.4967 12.3365 41.5279 14.7075L41.8751 14.7584C42.5617 12.4382 43.6423 11.237 44.4811 11.237C45.7138 11.237 46.0025 12.1213 46.0025 14.0463V19.3479C46.0025 21.2299 45.8075 21.179 44.6761 21.3746C42.8075 21.6681 42.117 22.4623 42.117 24.5869V33.6172C42.117 35.2488 42.3159 36.6338 42.3159 37.7685C42.3159 39.9361 42.0195 40.1826 40.342 40.1826H36.4018C34.9272 40.1826 34.5839 39.6896 34.5839 37.5689" fill="#002D62"/>
<path d="M61.3291 11.4562C63.8376 11.4562 65.558 12.3952 67.0404 14.5667C68.6633 12.3952 70.2862 11.4092 72.5488 11.4092C76.8401 11.4092 78.5098 14.6176 78.5098 21.0342V36.2426C78.5098 39.001 78.3576 40.1865 76.095 40.1865H74.2224C71.4682 40.1865 71.1756 39.6935 71.1756 37.4242V24.4891C71.1756 21.0812 71.1249 19.2579 69.4006 19.2579C67.9728 19.2579 67.3798 20.3417 67.3798 22.6149V36.2426C67.3798 39.001 67.2394 40.1865 64.9728 40.1865H63.1003C60.346 40.1865 60.0496 39.6935 60.0496 37.4242V24.4891C60.0496 21.0812 59.9988 19.2579 58.2784 19.2579C56.8467 19.2579 56.1601 20.4943 56.1601 22.9123V33.5742C56.1601 35.1392 56.4059 36.6378 56.4059 38.015C56.4059 40.0887 55.7193 40.1865 53.8975 40.1865H50.601C49.0717 40.1865 48.7753 39.6427 48.7753 37.522V17.6264C48.7753 17.0316 48.6738 16.0613 48.6738 14.7154C48.6738 12.2465 49.021 11.7496 51.7947 11.7496H54.5997C56.0314 11.7496 56.3747 12.0509 56.3747 13.4829V13.8272L56.6205 13.8781C57.9 12.1956 59.3747 11.4562 61.3447 11.4562" fill="#002D62"/>
<path d="M89.2853 14.5667V27.5644C89.2853 30.9762 89.3399 32.7956 91.0642 32.7956C92.4374 32.7956 93.1787 31.567 93.1787 29.1451V18.4676C93.1787 16.9377 92.929 15.4548 92.929 14.0267C92.929 11.9491 93.6195 11.8513 95.4413 11.8513H98.7417C100.263 11.8513 100.564 12.3443 100.564 14.4689V34.4232C100.564 35.0649 100.657 35.9883 100.657 37.3342C100.657 39.8031 100.314 40.3 97.5557 40.3H94.7547C93.3269 40.3 92.9836 40.0026 92.9836 38.5706V38.2263L92.7378 38.1793C92.1965 38.9528 91.4714 39.5787 90.6281 40.0002C89.7848 40.4218 88.8499 40.6256 87.9082 40.5934C83.617 40.5934 81.9551 37.389 81.9551 31.0192V15.8031C81.9551 13.0368 82.1033 11.8513 84.366 11.8513H86.2346C88.9654 11.8513 89.2853 12.2974 89.2853 14.5667Z" fill="#002D62"/>
<path d="M104.391 6.51841C104.391 4.49559 105.03 4.15128 107.047 4.15128C107.149 4.15128 107.496 4.19823 108.034 4.19823C108.475 4.19823 109.259 4.15128 110.398 4.15128C111.538 4.15128 111.916 4.54254 111.916 5.71632V37.9054C111.916 39.7287 111.775 40.2217 110.153 40.2217C109.556 40.2217 108.822 40.1239 108.034 40.1239C107.047 40.1239 106.361 40.2217 105.865 40.2217C104.492 40.2217 104.437 39.3805 104.437 37.4085V8.64296C104.437 8.05215 104.391 7.35962 104.391 6.51841Z" fill="#002D62"/>
<path d="M121.872 31.7C121.872 33.3746 122.465 34.165 123.651 34.165C125.079 34.165 125.422 33.3824 125.422 31.3518V28.3899C125.422 26.6606 125.032 25.8741 123.795 25.8741C122.558 25.8741 121.872 26.7584 121.872 28.5386V31.7ZM125.172 38.3515C124.63 39.8304 123.358 40.6208 121.431 40.6208C117.694 40.6208 114.982 36.7708 114.982 30.5536C114.982 23.9804 117.936 20.1343 121.825 20.1343C123.206 20.1343 124.24 20.776 124.946 20.776C125.434 20.776 125.629 20.5256 125.629 19.8409C125.629 18.405 124.493 17.4698 122.625 17.4698C120.557 17.4698 119.075 18.3541 118.248 18.3541C117.311 18.3541 117.077 17.8141 117.077 16.7304V14.2615C117.077 13.4242 117.077 12.8334 117.858 12.4891C118.845 12.043 121.302 11.4014 124.259 11.4014C130.606 11.4014 132.479 13.4751 132.479 18.7101V37.6198C132.479 38.0111 132.522 38.3124 132.522 38.5588C132.522 40.1239 132.183 40.1865 130.31 40.1865H126.9C125.617 40.1865 125.566 40.1395 125.519 38.3632L125.172 38.3515Z" fill="#002D62"/>
</g>
</svg>
